<svg xmlns="http://www.w3.org/2000/svg" viewBox="0 0 500 500">
  <path fill="currentColor" d="M250 0L50 115.47v231.06L250 462l200-115.47V115.47L250 0zm140 329.47l-140 80.86-140-80.86V132.53l140-80.86 140 80.86v196.94z"/>
  <path fill="currentColor" d="M250 51.67l-140 80.86v196.94l140 80.86 140-80.86V132.53L250 51.67zm100 261.66l-100 57.76-100-57.76V148.67l100-57.76 100 57.76v164.66z"/>
  <path fill="currentColor" d="M250 90.91l-100 57.76v164.66l100 57.76 100-57.76V148.67L250 90.91zm60 203.42l-60 34.66-60-34.66V167.67l60-34.66 60 34.66v126.66z"/>
</svg>